<?xml version="1.0" encoding="utf-8" ?>
<svg baseProfile="tiny" height="100%" version="1.2" width="100%" xmlns="http://www.w3.org/2000/svg" xmlns:ev="http://www.w3.org/2001/xml-events" xmlns:xlink="http://www.w3.org/1999/xlink"><defs /><g id="beam"><polyline fill="none" points="0,0 278.0,0 278.0,5 282.0,5 282.0,0 328.0,0 328.0,5 332.0,5 332.0,0 378.0,0 378.0,5 382.0,5 382.0,0 428.0,0 428.0,5 432.0,5 432.0,0 478.0,0 478.0,5 482.0,5 482.0,0 528.0,0 528.0,5 532.0,5 532.0,0 578.0,0 578.0,5 582.0,5 582.0,0 628.0,0 628.0,5 632.0,5 632.0,0 678.0,0 678.0,5 682.0,5 682.0,0 728.0,0 728.0,5 732.0,5 732.0,0 778.0,0 778.0,5 782.0,5 782.0,0 828.0,0 828.0,5 832.0,5 832.0,0 878.0,0 878.0,5 882.0,5 882.0,0 928.0,0 928.0,5 932.0,5 932.0,0 978.0,0 978.0,5 982.0,5 982.0,0 1028.0,0 1028.0,5 1032.0,5 1032.0,0 1078.0,0 1078.0,5 1082.0,5 1082.0,0 1128.0,0 1128.0,5 1132.0,5 1132.0,0 1178.0,0 1178.0,5 1182.0,5 1182.0,0 1228.0,0 1228.0,5 1232.0,5 1232.0,0 1278.0,0 1278.0,5 1282.0,5 1282.0,0 1328.0,0 1328.0,5 1332.0,5 1332.0,0 1378.0,0 1378.0,5 1382.0,5 1382.0,0 1428.0,0 1428.0,5 1432.0,5 1432.0,0 1478.0,0 1478.0,5 1482.0,5 1482.0,0 1490.0,0 1490.0,40 0,40 0,0" stroke="green" stroke-width="1" /><polyline fill="none" points="0,0 10,0 10,5 3,5 3,8 0,8 0,0" stroke="green" stroke-width="1" transform="translate(0,50)" /><polyline fill="none" points="0,0 10,0 10,5 3,5 3,8 0,8 0,0" stroke="green" stroke-width="1" transform="translate(20,50)" /><polyline fill="none" points="0,0 10,0 10,5 3,5 3,8 0,8 0,0" stroke="green" stroke-width="1" transform="translate(40,50)" /><polyline fill="none" points="0,0 10,0 10,5 3,5 3,8 0,8 0,0" stroke="green" stroke-width="1" transform="translate(60,50)" /><polyline fill="none" points="0,0 10,0 10,5 3,5 3,8 0,8 0,0" stroke="green" stroke-width="1" transform="translate(80,50)" /><polyline fill="none" points="0,0 10,0 10,5 3,5 3,8 0,8 0,0" stroke="green" stroke-width="1" transform="translate(100,50)" /><polyline fill="none" points="0,0 10,0 10,5 3,5 3,8 0,8 0,0" stroke="green" stroke-width="1" transform="translate(120,50)" /><polyline fill="none" points="0,0 10,0 10,5 3,5 3,8 0,8 0,0" stroke="green" stroke-width="1" transform="translate(140,50)" /><polyline fill="none" points="0,0 10,0 10,5 3,5 3,8 0,8 0,0" stroke="green" stroke-width="1" transform="translate(160,50)" /><polyline fill="none" points="0,0 10,0 10,5 3,5 3,8 0,8 0,0" stroke="green" stroke-width="1" transform="translate(180,50)" /><polyline fill="none" points="0,0 10,0 10,5 3,5 3,8 0,8 0,0" stroke="green" stroke-width="1" transform="translate(200,50)" /><polyline fill="none" points="0,0 10,0 10,5 3,5 3,8 0,8 0,0" stroke="green" stroke-width="1" transform="translate(220,50)" /><polyline fill="none" points="0,0 10,0 10,5 3,5 3,8 0,8 0,0" stroke="green" stroke-width="1" transform="translate(240,50)" /><polyline fill="none" points="0,0 10,0 10,5 3,5 3,8 0,8 0,0" stroke="green" stroke-width="1" transform="translate(260,50)" /><polyline fill="none" points="0,0 10,0 10,5 3,5 3,8 0,8 0,0" stroke="green" stroke-width="1" transform="translate(280,50)" /><polyline fill="none" points="0,0 10,0 10,5 3,5 3,8 0,8 0,0" stroke="green" stroke-width="1" transform="translate(300,50)" /><polyline fill="none" points="0,0 10,0 10,5 3,5 3,8 0,8 0,0" stroke="green" stroke-width="1" transform="translate(320,50)" /><polyline fill="none" points="0,0 10,0 10,5 3,5 3,8 0,8 0,0" stroke="green" stroke-width="1" transform="translate(340,50)" /><polyline fill="none" points="0,0 10,0 10,5 3,5 3,8 0,8 0,0" stroke="green" stroke-width="1" transform="translate(360,50)" /><polyline fill="none" points="0,0 10,0 10,5 3,5 3,8 0,8 0,0" stroke="green" stroke-width="1" transform="translate(380,50)" /><polyline fill="none" points="0,0 10,0 10,5 3,5 3,8 0,8 0,0" stroke="green" stroke-width="1" transform="translate(400,50)" /><polyline fill="none" points="0,0 10,0 10,5 3,5 3,8 0,8 0,0" stroke="green" stroke-width="1" transform="translate(420,50)" /><polyline fill="none" points="0,0 10,0 10,5 3,5 3,8 0,8 0,0" stroke="green" stroke-width="1" transform="translate(440,50)" /><polyline fill="none" points="0,0 10,0 10,5 3,5 3,8 0,8 0,0" stroke="green" stroke-width="1" transform="translate(460,50)" /><polyline fill="none" points="0,0 10,0 10,5 3,5 3,8 0,8 0,0" stroke="green" stroke-width="1" transform="translate(480,50)" /></g></svg>