<?xml version="1.0" encoding="utf-8" ?>
<svg baseProfile="tiny" height="100%" version="1.2" width="100%" xmlns="http://www.w3.org/2000/svg" xmlns:ev="http://www.w3.org/2001/xml-events" xmlns:xlink="http://www.w3.org/1999/xlink"><defs /><g id="profiles" transform="translate(100,100)"><g fill="none" id="0" stroke="green" transform="translate(100,0)"><polyline points="134.2241,128.7405 133.7012,128.3989 132.1637,127.468 129.7073,126.0468 126.4371,124.1899 122.4646,121.8971 117.8595,119.1369 112.6344,115.8851 106.8049,112.1787 100.419,108.0671 93.5413,103.5838 86.2361,98.7625 78.574,93.6429 70.6359,88.2506 62.5107,82.6074 54.2596,76.7101 45.927,70.5759 37.5895,64.2343 29.2998,57.7025 21.1041,51.0117 13.0692,44.1771 5.2373,37.2218 -2.3391,30.1832 -9.6178,23.0763 -16.5747,15.9257 -23.1577,8.769 -29.3445,1.6246 -35.1178,-5.4643 -40.4513,-12.475 -45.3354,-19.381 -49.779,-26.1255 -53.7629,-32.6554 -57.2795,-38.9217 -60.3093,-44.8795 -62.8448,-50.4839 -64.8808,-55.6922 -66.4034,-60.4696 -67.4255,-64.7797 -67.9439,-68.5696 -67.9488,-71.8129 -67.4506,-74.4994 -66.4554,-76.6232 -65.0654,-78.1493 -63.2701,-78.8399 -60.8685,-78.6978 -57.8407,-77.938 -54.2963,-76.5787 -50.3062,-74.6188 -45.9143,-71.9961 -41.0984,-68.6961 -35.8414,-64.7753 -30.1954,-60.2712 -24.1882,-55.2248 -17.8682,-49.6694 -11.2753,-43.6423 -4.4536,-37.1848 2.5427,-30.3364 9.6655,-23.1385 16.8566,-15.6347 24.0513,-7.8544 31.2014,0.1771 38.2542,8.4468 45.143,16.9273 51.8833,25.6756 58.569,34.6649 65.2203,43.7634 71.831,52.8652 78.3844,61.8666 84.8496,70.6614 91.1898,79.1412 97.3579,87.2037 103.2985,94.7545 108.948,101.6992 114.2286,107.9572 119.0681,113.4624 123.3801,118.1545 127.0838,122.0036 130.1003,124.9863 132.3445,127.0888 133.7429,128.3346 134.2241,128.7405 134.2241,128.7405" /><rect fill="none" height="5.7468" stroke="green" transform="rotate(45.9184)" width="5.7468" x="-71.8347" y="-2.8734" /><rect fill="none" height="6" stroke="green" width="40" x="-15.0" y="-3.0" /></g><g fill="none" id="1" stroke="green" transform="translate(100,100)"><polyline points="159.9847,112.5484 159.3869,112.2762 157.6405,111.5523 154.8611,110.4646 151.1663,109.053 146.6722,107.2996 141.4463,105.1607 135.4976,102.6092 128.8485,99.6808 121.5566,96.4195 113.6943,92.8499 105.3339,88.9966 96.5551,84.8897 87.4461,80.5432 78.1028,75.9655 68.5882,71.1437 58.9512,66.0885 49.2763,60.8184 39.6208,55.3429 30.0379,49.6872 20.5993,43.8565 11.3527,37.8681 2.3584,31.7526 -6.3372,25.5188 -14.7051,19.1885 -22.6852,12.7924 -30.2516,6.3464 -37.379,-0.1077 -44.037,-6.5502 -50.211,-12.9552 -55.9015,-19.2622 -61.0798,-25.419 -65.7305,-31.376 -69.8261,-37.0894 -73.3518,-42.5139 -76.2952,-47.6058 -78.6365,-52.3311 -80.3833,-56.6501 -81.5237,-60.5083 -82.0436,-63.8795 -81.9519,-66.7517 -81.2543,-69.1178 -80.0513,-70.9251 -78.2944,-71.928 -75.7749,-72.1614 -72.5063,-71.852 -68.6054,-71.0012 -64.146,-69.5968 -59.1635,-67.5671 -53.6326,-64.9004 -47.5446,-61.6583 -40.9596,-57.8714 -33.9131,-53.5781 -26.4605,-48.8053 -18.6493,-43.5853 -10.5319,-37.9541 -2.171,-31.9442 6.3769,-25.591 15.0444,-18.9306 23.7595,-11.9834 32.4681,-4.7679 41.1133,2.7108 49.6216,10.4346 58.0179,18.4605 66.3956,26.7455 74.755,35.1495 83.0727,43.5635 91.3148,51.8822 99.4325,59.9999 107.3702,67.8101 115.0627,75.2137 122.4375,82.1215 129.4135,88.4452 135.8969,94.1136 141.8022,99.0692 147.0301,103.2632 151.4917,106.6773 155.1013,109.2996 157.7684,111.1295 159.42,112.2027 159.9847,112.5484 159.9847,112.5484" /><polyline points="-90.6618,-12.0882 -86.1287,-12.0882" stroke="red" stroke-width="0.2" transform="rotate(37.2392)" /><rect fill="none" height="6.0441" stroke="green" transform="rotate(37.2392)" width="6.0441" x="-75.5515" y="-3.0221" /><rect fill="none" height="6" stroke="green" width="40" x="-15.0" y="-3.0" /></g><g fill="none" id="2" stroke="green" transform="translate(100,200)"><polyline points="169.7013,92.3421 169.0839,92.1426 167.2885,91.6298 164.4384,90.8767 160.6535,89.9095 156.0457,88.6972 150.6762,87.1895 144.551,85.3585 137.6958,83.237 130.1723,80.8615 122.0542,78.248 113.4154,75.4125 104.3374,72.3755 94.9082,69.1408 85.2231,65.7056 75.3423,62.0503 65.3149,58.1798 55.2261,54.1028 45.1332,49.8221 35.091,45.3563 25.1707,40.7025 15.4209,35.8722 5.9043,30.8887 -3.3326,25.7553 -12.2589,20.4902 -20.8121,15.1168 -28.965,9.6475 -36.6881,4.1208 -43.9493,-1.4478 -50.7314,-7.0342 -57.028,-12.5791 -62.805,-18.0346 -68.0418,-23.3537 -72.7064,-28.4965 -76.7791,-33.4203 -80.2429,-38.0837 -83.0744,-42.4554 -85.2767,-46.4957 -86.8319,-50.1523 -87.7232,-53.4013 -87.958,-56.2299 -87.541,-58.6303 -86.565,-60.5397 -84.9546,-61.7224 -82.5088,-62.2362 -79.2668,-62.3023 -75.343,-61.9085 -70.8087,-61.0348 -65.6904,-59.6066 -59.9621,-57.6154 -53.622,-55.1227 -46.7327,-52.1516 -39.3333,-48.7358 -31.4812,-44.8954 -23.2267,-40.6568 -14.6253,-36.0494 -5.7421,-31.0979 3.3634,-25.8307 12.6209,-20.2756 21.9576,-14.4445 31.3183,-8.3493 40.6465,-1.9888 49.8681,4.6276 59.0139,11.5532 68.1708,18.7351 77.3233,26.0359 86.4358,33.3511 95.4635,40.5814 104.3464,47.6286 113.0179,54.3943 121.4028,60.7889 129.42,66.7328 136.9798,72.1489 143.9821,76.9775 150.3367,81.1723 155.9404,84.6962 160.7042,87.5417 164.5424,89.7065 167.3662,91.2004 169.1081,92.0667 169.7013,92.3421 169.7013,92.3421" /><polyline points="-89.5452,-11.9394 -85.0679,-11.9394 -85.0679,-7.4621" stroke="red" stroke-width="0.2" transform="rotate(30.6656)" /><rect fill="none" height="5.9697" stroke="green" transform="rotate(30.6656)" width="5.9697" x="-74.621" y="-2.9848" /><rect fill="none" height="6" stroke="green" width="40" x="-15.0" y="-3.0" /></g><g fill="none" id="3" stroke="green" transform="translate(100,300)"><polyline points="169.5761,73.8179 168.9706,73.6795 167.2155,73.3411 164.4345,72.8622 160.744,72.2574 156.2483,71.488 151.0014,70.5008 145.0067,69.2687 138.2916,67.8209 130.9178,66.1869 122.9571,64.3759 114.4812,62.3968 105.5696,60.2625 96.3064,57.969 86.7824,55.5059 77.0533,52.8494 67.1664,49.9998 57.2036,46.9585 47.2197,43.7233 37.2687,40.3073 27.4182,36.7019 17.7155,32.9139 8.2222,28.9601 -1.0168,24.84 -9.9708,20.5682 -18.578,16.1618 -26.8115,11.6304 -34.6401,7.0081 -42.0316,2.3072 -48.9678,-2.4509 -55.4375,-7.2102 -61.4043,-11.9278 -66.8445,-16.5607 -71.7242,-21.0735 -76.0211,-25.4271 -79.7155,-29.5834 -82.7825,-33.5148 -85.2216,-37.1828 -87.0115,-40.5392 -88.134,-43.5627 -88.5953,-46.2403 -88.3991,-48.5644 -87.6286,-50.4671 -86.1921,-51.73 -83.9029,-52.4253 -80.8169,-52.7603 -77.0421,-52.7141 -72.6448,-52.2613 -67.6442,-51.3289 -62.0146,-49.9107 -55.7595,-48.0657 -48.9405,-45.8105 -41.5978,-43.1741 -33.7878,-40.1708 -25.5606,-36.8215 -16.9717,-33.1496 -8.0851,-29.1732 1.0399,-24.9145 10.334,-20.3939 19.7268,-15.6168 29.1646,-10.5899 38.5937,-5.3072 47.9426,0.2285 57.2453,6.0652 66.58,12.1456 75.9204,18.3396 85.224,24.5508 94.4395,30.6881 103.5015,36.663 112.3384,42.3872 120.8709,47.7814 129.0149,52.7769 136.6784,57.3073 143.761,61.3243 150.1727,64.7912 155.8122,67.6815 160.5936,69.9952 164.4354,71.7375 167.2535,72.9251 168.9873,73.6051 169.5761,73.8179 169.5761,73.8179" /><polyline points="-85.7205,-11.4294 -81.4345,-11.4294 -81.4345,-7.1434 -85.7205,-7.1434" stroke="red" stroke-width="0.2" transform="rotate(25.6369)" /><rect fill="none" height="5.7147" stroke="green" transform="rotate(25.6369)" width="5.7147" x="-71.4338" y="-2.8574" /><rect fill="none" height="6" stroke="green" width="40" x="-15.0" y="-3.0" /></g><g fill="none" id="4" stroke="green" transform="translate(100,400)"><polyline points="164.2249,58.5053 163.6466,58.4141 161.9743,58.2089 159.3281,57.9375 155.8186,57.6063 151.5412,57.1721 146.5433,56.5814 140.8265,55.8086 134.4182,54.8793 127.3785,53.8172 119.7755,52.6265 111.6772,51.3109 103.1591,49.8773 94.3002,48.3167 85.185,46.6133 75.8645,44.7413 66.3832,42.6979 56.8182,40.479 47.2209,38.0791 37.6429,35.5072 28.1471,32.7506 18.7786,29.8128 9.5964,26.7056 0.6426,23.4256 -8.0529,19.9846 -16.431,16.3947 -24.4656,12.6633 -32.1254,8.8203 -39.3791,4.8752 -46.2083,0.8469 -52.5989,-3.2124 -58.5139,-7.2649 -63.9282,-11.2716 -68.8077,-15.2015 -73.1288,-19.0192 -76.8706,-22.6901 -80.0079,-26.1898 -82.5378,-29.4823 -84.4371,-32.5235 -85.6874,-35.2947 -86.2935,-37.7831 -86.2586,-39.9813 -85.6565,-41.8202 -84.3869,-43.1004 -82.2788,-43.9016 -79.3981,-44.4152 -75.8453,-44.6148 -71.6809,-44.472 -66.9181,-43.917 -61.5326,-42.9457 -55.5314,-41.6132 -48.9735,-39.9313 -41.8985,-37.9245 -34.3605,-35.6028 -26.4079,-32.9826 -18.0943,-30.0823 -9.4812,-26.9148 -0.6257,-23.4971 8.4057,-19.8441 17.5464,-15.9561 26.7455,-11.8362 35.9529,-7.4752 45.1011,-2.871 54.2253,2.0193 63.3952,7.1366 72.5779,12.3604 81.727,17.6027 90.7885,22.7812 99.6953,27.8168 108.3742,32.6312 116.7455,37.1549 124.7258,41.3286 132.2244,45.0958 139.1436,48.4177 145.3965,51.2653 150.886,53.6204 155.5316,55.4885 159.2566,56.8797 161.9833,57.8152 163.6575,58.3431 164.2249,58.5053 164.2249,58.5053" /><polyline points="-80.8023,-10.7736 -76.7622,-10.7736 -76.7622,-6.7335 -80.8023,-6.7335 -80.8023,-10.7736" stroke="red" stroke-width="0.2" transform="rotate(21.7215)" /><rect fill="none" height="5.3868" stroke="green" transform="rotate(21.7215)" width="5.3868" x="-67.3353" y="-2.6934" /><rect fill="none" height="6" stroke="green" width="40" x="-15.0" y="-3.0" /></g><g fill="none" id="5" stroke="green" transform="translate(400,0)"><polyline points="156.4606,46.3469 155.9154,46.291 154.342,46.1841 151.855,46.0647 148.558,45.9332 144.5381,45.7445 139.8369,45.4461 134.4545,45.0139 128.4179,44.4706 121.7845,43.8352 114.618,43.1081 106.9822,42.2895 98.948,41.382 90.5889,40.3729 81.9831,39.2435 73.1767,37.9668 64.2115,36.5382 55.159,34.9498 46.0671,33.1938 36.9846,31.2761 27.9695,29.1816 19.0643,26.9112 10.3246,24.4731 1.7895,21.8619 -6.5123,19.0872 -14.525,16.1571 -22.2239,13.0773 -29.578,9.8742 -36.5579,6.555 -43.1452,3.1367 -49.3242,-0.333 -55.0582,-3.8204 -60.3219,-7.2905 -65.0819,-10.7159 -69.3144,-14.0647 -72.9979,-17.3058 -76.1078,-20.4176 -78.6395,-23.3665 -80.569,-26.1126 -81.8782,-28.6391 -82.571,-30.9341 -82.6499,-32.9905 -82.1805,-34.7397 -81.0588,-36.0007 -79.1292,-36.8565 -76.4629,-37.4828 -73.1524,-37.8496 -69.2529,-37.9275 -64.7732,-37.6505 -59.6904,-37.016 -54.0138,-36.0751 -47.7992,-34.836 -41.0848,-33.3194 -33.9216,-31.532 -26.3558,-29.4867 -18.4383,-27.1978 -10.2275,-24.6745 -1.7773,-21.9296 6.8492,-18.9737 15.5898,-15.8038 24.3967,-12.4199 33.2237,-8.8113 42.0077,-4.9723 50.7837,-0.8647 59.614,3.4528 68.4615,7.8691 77.2787,12.3045 86.0108,16.6846 94.591,20.9391 102.947,24.9984 111.0008,28.8016 118.6713,32.2975 125.871,35.4379 132.5066,38.1915 138.4953,40.5357 143.7455,42.4582 148.1823,43.9685 151.7345,45.0797 154.3304,45.8157 155.922,46.224 156.4606,46.3469 156.4606,46.3469" /><polyline points="-75.6324,-10.0843 -71.8508,-10.0843 -71.8508,-6.3027 -75.6324,-6.3027 -75.6324,-10.0843 -71.8508,-6.3027" stroke="red" stroke-width="0.2" transform="rotate(18.6134)" /><rect fill="none" height="5.0422" stroke="green" transform="rotate(18.6134)" width="5.0422" x="-63.027" y="-2.5211" /><rect fill="none" height="6" stroke="green" width="40" x="-15.0" y="-3.0" /></g><g fill="none" id="6" stroke="green" transform="translate(400,100)"><polyline points="147.8454,36.8266 147.3346,36.7968 145.8626,36.7615 143.5378,36.752 140.4569,36.7643 136.6994,36.7529 132.3019,36.667 127.2634,36.4843 121.6102,36.2246 115.3964,35.9035 108.6817,35.5187 101.5254,35.0677 93.994,34.5501 86.1552,33.9511 78.0813,33.25 69.8144,32.4196 61.393,31.454 52.8838,30.343 44.3309,29.0773 35.7801,27.6603 27.2851,26.0756 18.8852,24.3224 10.6329,22.406 2.5644,20.3197 -5.2932,18.0713 -12.8875,15.6662 -20.1952,13.1085 -27.1864,10.4218 -33.8331,7.6114 -40.1178,4.6925 -46.0236,1.7089 -51.5152,-1.3094 -56.5673,-4.3308 -61.1478,-7.3312 -65.233,-10.2817 -68.8017,-13.1542 -71.8301,-15.9295 -74.3123,-18.5766 -76.2246,-21.0592 -77.5493,-23.3624 -78.2895,-25.4748 -78.4473,-27.3898 -78.081,-29.0407 -77.0864,-30.2629 -75.3215,-31.1402 -72.86,-31.8336 -69.7869,-32.3112 -66.1526,-32.5436 -61.9626,-32.4686 -57.1953,-32.0848 -51.8616,-31.4396 -46.0139,-30.5382 -39.6885,-29.3985 -32.9334,-28.0245 -25.7922,-26.4263 -18.3131,-24.6154 -10.5506,-22.5979 -2.5558,-20.3834 5.6121,-17.9793 13.8952,-15.3802 22.249,-12.5843 30.6306,-9.5795 38.9815,-6.3582 47.336,-2.8859 55.7498,0.7799 64.1837,4.5373 72.5901,8.3136 80.9148,12.0419 89.0927,15.6592 97.0534,19.1036 104.7218,22.3215 112.0201,25.2684 118.8645,27.9031 125.167,30.2 130.8494,32.1415 135.8255,33.7199 140.026,34.947 143.385,35.8381 145.8367,36.4183 147.338,36.7341 147.8454,36.8266 147.8454,36.8266" /><polyline points="-70.6185,-9.4158 -67.0876,-9.4158 -67.0876,-5.8849 -70.6185,-5.8849 -70.6185,-9.4158 -67.0876,-5.8849" stroke="red" stroke-width="0.2" transform="rotate(16.1001)" /><polyline points="-66.0283,-9.4158 -62.4974,-9.4158" stroke="red" stroke-width="0.2" transform="rotate(16.1001)" /><rect fill="none" height="4.7079" stroke="green" transform="rotate(16.1001)" width="4.7079" x="-58.8487" y="-2.3539" /><rect fill="none" height="6" stroke="green" width="40" x="-15.0" y="-3.0" /></g><g fill="none" id="7" stroke="green" transform="translate(400,200)"><polyline points="139.1985,29.385 138.7208,29.3743 137.346,29.3909 135.1764,29.4603 132.302,29.5756 128.7954,29.6915 124.689,29.7594 119.9814,29.7586 114.6974,29.7067 108.8884,29.6163 102.6098,29.4834 95.9169,29.3036 88.8716,29.0742 81.5369,28.7793 73.9794,28.3969 66.2374,27.9005 58.3466,27.2831 50.369,26.5329 42.3455,25.6399 34.3188,24.6056 26.3385,23.413 18.4413,22.0599 10.6764,20.5495 3.0772,18.8745 -4.3307,17.041 -11.4981,15.0525 -18.4032,12.912 -25.0173,10.6403 -31.3142,8.2418 -37.2769,5.7297 -42.8883,3.1445 -48.1142,0.513 -52.9303,-2.1362 -57.3054,-4.7816 -61.2168,-7.3973 -64.6436,-9.9575 -67.5629,-12.4452 -69.9683,-14.8317 -71.8363,-17.0839 -73.15,-19.1885 -73.9118,-21.1347 -74.1236,-22.9163 -73.8374,-24.4691 -72.9504,-25.643 -71.3331,-26.5211 -69.0595,-27.251 -66.2081,-27.8003 -62.8246,-28.1395 -58.9123,-28.2106 -54.4509,-28.013 -49.4522,-27.5906 -43.9651,-26.9464 -38.0244,-26.0959 -31.6748,-25.0413 -24.9573,-23.7905 -17.9173,-22.3526 -10.606,-20.7313 -3.0713,-18.9342 4.6313,-16.9659 12.448,-14.8196 20.3373,-12.492 28.2596,-9.9704 36.1605,-7.2457 44.0733,-4.287 52.0478,-1.1497 60.0442,2.0724 68.0156,5.3131 75.9092,8.5117 83.662,11.6117 91.2063,14.5577 98.4703,17.3021 105.3797,19.8062 111.8552,22.0341 117.8135,23.9652 123.1813,25.5855 127.8778,26.8907 131.8387,27.8943 135.0031,28.6128 137.3103,29.0716 138.7219,29.3157 139.1985,29.385 139.1985,29.385" /><polyline points="-65.9388,-8.7918 -62.6419,-8.7918 -62.6419,-5.4949 -65.9388,-5.4949 -65.9388,-8.7918 -62.6419,-5.4949" stroke="red" stroke-width="0.2" transform="rotate(14.0332)" /><polyline points="-61.6528,-8.7918 -58.3558,-8.7918 -58.3558,-5.4949" stroke="red" stroke-width="0.2" transform="rotate(14.0332)" /><rect fill="none" height="4.3959" stroke="green" transform="rotate(14.0332)" width="4.3959" x="-54.949" y="-2.198" /><rect fill="none" height="6" stroke="green" width="40" x="-15.0" y="-3.0" /></g><g fill="none" id="8" stroke="green" transform="translate(400,300)"><polyline points="130.9226,23.5437 130.4759,23.5472 129.1915,23.6014 127.1657,23.7274 124.4825,23.9161 121.2085,24.1231 117.3726,24.3022 112.9728,24.434 108.0329,24.5343 102.6013,24.6134 96.7295,24.666 90.4692,24.6864 83.8783,24.6704 77.0149,24.6012 69.9409,24.4567 62.6912,24.2107 55.2991,23.8559 47.8221,23.3794 40.2982,22.7707 32.7673,22.0301 25.2753,21.1402 17.8565,20.0979 10.5568,18.905 3.4074,17.5535 -3.5676,16.0485 -10.3223,14.3919 -16.8361,12.5858 -23.0816,10.6489 -29.0343,8.5845 -34.6777,6.4046 -39.9949,4.1465 -44.9532,1.8342 -49.5289,-0.5061 -53.6924,-2.8553 -57.4216,-5.1898 -60.6964,-7.4861 -63.4948,-9.7289 -65.8101,-11.8916 -67.6194,-13.9439 -68.9064,-15.8738 -69.6733,-17.6713 -69.9213,-19.3304 -69.6976,-20.7898 -68.9016,-21.9119 -67.4148,-22.7781 -65.3105,-23.5243 -62.661,-24.1179 -59.5083,-24.5302 -55.8539,-24.7068 -51.6787,-24.6478 -46.995,-24.3937 -41.8486,-23.9462 -36.2725,-23.3186 -30.3084,-22.5117 -23.995,-21.5319 -17.375,-20.3862 -10.4961,-19.0769 -3.4036,-17.6094 3.8507,-15.9868 11.2167,-14.2009 18.6555,-12.2477 26.1307,-10.1141 33.5917,-7.7901 41.0702,-5.2477 48.6116,-2.5401 56.1758,0.2461 63.7171,3.0505 71.1845,5.8176 78.5176,8.4966 85.6515,11.0374 92.5177,13.3979 99.0458,15.5436 105.1605,17.4435 110.7836,19.0805 115.8459,20.4437 120.272,21.5314 124.0021,22.3578 126.9798,22.9401 129.1491,23.304 130.4752,23.4924 130.9226,23.5437 130.9226,23.5437" /><polyline points="-61.6545,-8.2206 -58.5718,-8.2206 -58.5718,-5.1379 -61.6545,-5.1379 -61.6545,-8.2206 -58.5718,-5.1379" stroke="red" stroke-width="0.2" transform="rotate(12.3075)" /><polyline points="-57.647,-8.2206 -54.5642,-8.2206 -54.5642,-5.1379 -57.647,-5.1379" stroke="red" stroke-width="0.2" transform="rotate(12.3075)" /><rect fill="none" height="4.1103" stroke="green" transform="rotate(12.3075)" width="4.1103" x="-51.3788" y="-2.0552" /><rect fill="none" height="6" stroke="green" width="40" x="-15.0" y="-3.0" /></g><g fill="none" id="9" stroke="green" transform="translate(400,400)"><polyline points="123.1932,18.9273 122.7748,18.9413 121.573,19.0227 119.6785,19.1891 117.1698,19.4299 114.1081,19.702 110.5194,19.9613 106.4014,20.1898 101.7768,20.4016 96.691,20.6054 91.1923,20.7948 85.329,20.9633 79.1551,21.1056 72.7248,21.2047 66.0953,21.2382 59.2989,21.1809 52.3665,21.025 45.3516,20.7572 38.2896,20.3666 31.218,19.8527 24.1792,19.198 17.2054,18.3989 10.3395,17.4557 3.6106,16.3604 -2.9586,15.1173 -9.325,13.7268 -15.4694,12.1906 -21.3656,10.5255 -26.9906,8.734 -32.3287,6.8268 -37.363,4.8387 -42.0625,2.7912 -46.4042,0.7083 -50.3602,-1.3928 -53.9089,-3.4904 -57.0311,-5.5631 -59.7059,-7.5971 -61.9262,-9.5675 -63.6699,-11.4466 -64.9214,-13.2236 -65.6826,-14.889 -65.9546,-16.4371 -65.7798,-17.8094 -65.0611,-18.8794 -63.6891,-19.7262 -61.7359,-20.4754 -59.2683,-21.0947 -56.3252,-21.5561 -52.9064,-21.8088 -48.9942,-21.8532 -44.6011,-21.727 -39.7699,-21.4306 -34.5319,-20.9759 -28.9263,-20.3625 -22.9894,-19.5954 -16.7612,-18.6804 -10.2868,-17.6182 -3.6084,-16.413 3.2252,-15.0662 10.1673,-13.5693 17.1817,-11.9174 24.2344,-10.0974 31.2783,-8.0986 38.3439,-5.8957 45.4724,-3.5396 52.624,-1.1105 59.7547,1.3362 66.8152,3.7499 73.7478,6.0841 80.4906,8.2938 86.9783,10.3408 93.1441,12.1949 98.917,13.8285 104.223,15.2276 108.9973,16.3836 113.169,17.2967 116.6826,17.9817 119.4857,18.4561 121.5262,18.7452 122.7729,18.8899 123.1932,18.9273 123.1932,18.9273" /><polyline points="-57.7686,-7.7025 -54.8802,-7.7025 -54.8802,-4.814 -57.7686,-4.814 -57.7686,-7.7025 -54.8802,-4.814" stroke="red" stroke-width="0.2" transform="rotate(10.8476)" /><polyline points="-54.0136,-7.7025 -51.1252,-7.7025 -51.1252,-4.814 -54.0136,-4.814 -54.0136,-7.7025" stroke="red" stroke-width="0.2" transform="rotate(10.8476)" /><rect fill="none" height="3.8512" stroke="green" transform="rotate(10.8476)" width="3.8512" x="-48.1405" y="-1.9256" /><rect fill="none" height="6" stroke="green" width="40" x="-15.0" y="-3.0" /></g><g fill="none" id="10" stroke="green" transform="translate(700,0)"><polyline points="116.0675,15.2496 115.675,15.2712 114.5481,15.3723 112.7726,15.5674 110.4218,15.8449 107.5524,16.163 104.1879,16.4801 100.3257,16.779 95.9875,17.0726 91.216,17.3681 86.0566,17.6586 80.5544,17.937 74.7599,18.1971 68.7238,18.4219 62.4993,18.5891 56.1162,18.6745 49.6034,18.6701 43.0108,18.5623 36.3716,18.3402 29.7207,18.0025 23.0978,17.5319 16.5329,16.9243 10.0665,16.1794 3.7255,15.2887 -2.4685,14.256 -8.4751,13.0806 -14.2763,11.764 -19.847,10.3212 -25.1656,8.7542 -30.2172,7.0727 -34.9852,5.3089 -39.44,3.4825 -43.5596,1.6156 -47.3173,-0.2763 -50.6926,-2.1732 -53.6669,-4.0556 -56.2201,-5.9107 -58.3454,-7.7155 -60.0212,-9.4443 -61.2328,-11.0873 -61.9817,-12.6355 -62.2688,-14.0836 -62.1328,-15.3758 -61.4798,-16.3953 -60.2089,-17.2186 -58.3901,-17.9621 -56.0857,-18.5941 -53.3316,-19.0877 -50.1265,-19.395 -46.4538,-19.5168 -42.326,-19.4883 -37.7834,-19.309 -32.8556,-18.9893 -27.5793,-18.5281 -21.9887,-17.9294 -16.1216,-17.1978 -10.0203,-16.333 -3.7245,-15.338 2.7199,-14.2134 9.2693,-12.95 15.8897,-11.5425 22.5495,-9.9779 29.2048,-8.2454 35.8847,-6.3216 42.6266,-4.2552 49.3918,-2.1207 56.1377,0.0308 62.8171,2.1526 69.3747,4.2025 75.7515,6.1392 81.8854,7.9286 87.7132,9.5432 93.1675,10.9589 98.1786,12.164 102.6853,13.1517 106.6214,13.9237 109.9347,14.495 112.5765,14.883 114.4985,15.1127 115.6721,15.2231 116.0675,15.2496 116.0675,15.2496" /><polyline points="-54.2583,-7.2344 -51.5454,-7.2344 -51.5454,-4.5215 -54.2583,-4.5215 -54.2583,-7.2344 -51.5454,-4.5215" stroke="red" stroke-width="0.2" transform="rotate(9.59796)" /><polyline points="-50.7315,-7.2344 -48.0186,-7.2344 -48.0186,-4.5215 -50.7315,-4.5215 -50.7315,-7.2344 -48.0186,-4.5215" stroke="red" stroke-width="0.2" transform="rotate(9.59796)" /><rect fill="none" height="3.6172" stroke="green" transform="rotate(9.59796)" width="3.6172" x="-45.2152" y="-1.8086" /><rect fill="none" height="6" stroke="green" width="40" x="-15.0" y="-3.0" /></g><g fill="none" id="11" stroke="green" transform="translate(700,100)"><polyline points="109.542,12.2952 109.1729,12.3225 108.1138,12.4377 106.4457,12.6528 104.2375,12.9559 101.5417,13.3064 98.3799,13.6646 94.7491,14.0146 90.6702,14.368 86.1834,14.731 81.3312,15.0961 76.1561,15.4559 70.7055,15.8037 65.0268,16.1226 59.1698,16.3906 53.162,16.5843 47.0305,16.6958 40.822,16.7114 34.5676,16.6203 28.3002,16.4204 22.0567,16.095 15.8654,15.6397 9.7644,15.0532 3.7789,14.3273 -2.0707,13.465 -7.7465,12.4652 -13.2314,11.3287 -18.5015,10.0694 -23.5365,8.6885 -28.3222,7.1952 -32.8424,5.6194 -37.0687,3.9791 -40.9803,2.2947 -44.5516,0.5803 -47.7629,-1.1456 -50.5964,-2.8649 -53.0332,-4.5661 -55.066,-6.2275 -56.6744,-7.8253 -57.8443,-9.3505 -58.5768,-10.7948 -58.8728,-12.153 -58.7677,-13.3719 -58.1711,-14.3433 -56.9892,-15.141 -55.2901,-15.8733 -53.1319,-16.5092 -50.5478,-17.0228 -47.5358,-17.369 -44.0803,-17.549 -40.1937,-17.5954 -35.914,-17.5073 -31.269,-17.2938 -26.2934,-16.9534 -21.0196,-16.489 -15.4831,-15.9044 -9.7237,-15.1986 -3.7789,-14.3738 2.3082,-13.4295 8.4965,-12.3564 14.7542,-11.1489 21.0519,-9.7942 27.3483,-8.2813 33.6712,-6.5888 40.055,-4.7631 46.462,-2.8737 52.8511,-0.9681 59.1771,0.9109 65.3871,2.7242 71.4249,4.4343 77.2315,6.0099 82.7467,7.4265 87.9067,8.6625 92.6458,9.708 96.9062,10.5578 100.6255,11.2147 103.7549,11.6937 106.2489,12.0121 108.0625,12.1941 109.1693,12.2772 109.542,12.2952 109.542,12.2952" /><polyline points="-51.0903,-6.812 -48.5358,-6.812 -48.5358,-4.2575 -51.0903,-4.2575 -51.0903,-6.812 -48.5358,-4.2575" stroke="red" stroke-width="0.2" transform="rotate(8.51716)" /><polyline points="-47.7694,-6.812 -45.2149,-6.812 -45.2149,-4.2575 -47.7694,-4.2575 -47.7694,-6.812 -45.2149,-4.2575" stroke="red" stroke-width="0.2" transform="rotate(8.51716)" /><polyline points="-44.4486,-6.812 -41.894,-6.812" stroke="red" stroke-width="0.2" transform="rotate(8.51716)" /><rect fill="none" height="3.406" stroke="green" transform="rotate(8.51716)" width="3.406" x="-42.5753" y="-1.703" /><rect fill="none" height="6" stroke="green" width="40" x="-15.0" y="-3.0" /></g><g fill="none" id="12" stroke="green" transform="translate(700,200)"><polyline points="103.584,9.9025 103.236,9.9341 102.2382,10.0592 100.6671,10.2882 98.5875,10.6085 96.0485,10.9813 93.0697,11.3685 89.6482,11.7553 85.8037,12.1523 81.5744,12.5647 77.0003,12.9847 72.1213,13.4047 66.9821,13.8177 61.6272,14.2069 56.103,14.5509 50.4355,14.8271 44.6499,15.0277 38.7902,15.1389 32.8855,15.1501 26.9667,15.0589 21.0687,14.8487 15.2179,14.5152 9.4502,14.0564 3.7895,13.4643 -1.7452,12.7414 -7.1179,11.8859 -12.3126,10.8984 -17.3065,9.7917 -22.0803,8.5666 -26.6205,7.2315 -30.9114,5.8144 -34.9261,4.3319 -38.6442,2.8028 -42.0416,1.2401 -45.0996,-0.339 -47.8007,-1.9177 -50.1271,-3.4856 -52.0717,-5.0221 -53.6146,-6.5052 -54.7425,-7.9266 -55.4564,-9.2784 -55.7569,-10.5558 -55.6766,-11.708 -55.1286,-12.6341 -54.0254,-13.4053 -52.4331,-14.1229 -50.4059,-14.7567 -47.9748,-15.2816 -45.1373,-15.6552 -41.8786,-15.8788 -38.2109,-15.983 -34.17,-15.9664 -29.7825,-15.8371 -25.0809,-15.5931 -20.0959,-15.2367 -14.8611,-14.771 -9.414,-14.1943 -3.7901,-13.5082 1.9699,-12.7115 7.8275,-11.7948 13.7527,-10.7523 19.718,-9.5716 25.6844,-8.2415 31.6786,-6.7422 37.7325,-5.1183 43.8092,-3.4345 49.8693,-1.7352 55.8693,-0.06 61.759,1.5551 67.4844,3.0753 72.9895,4.4722 78.2172,5.7236 83.1067,6.81 87.596,7.7231 91.6304,8.4591 95.1512,9.0212 98.1124,9.4247 100.4714,9.6865 102.1859,9.8301 103.232,9.8913 103.584,9.9025 103.584,9.9025" /><polyline points="-48.2289,-6.4305 -45.8175,-6.4305 -45.8175,-4.0191 -48.2289,-4.0191 -48.2289,-6.4305 -45.8175,-4.0191" stroke="red" stroke-width="0.2" transform="rotate(7.5738)" /><polyline points="-45.094,-6.4305 -42.6826,-6.4305 -42.6826,-4.0191 -45.094,-4.0191 -45.094,-6.4305 -42.6826,-4.0191" stroke="red" stroke-width="0.2" transform="rotate(7.5738)" /><polyline points="-41.9591,-6.4305 -39.5477,-6.4305 -39.5477,-4.0191" stroke="red" stroke-width="0.2" transform="rotate(7.5738)" /><rect fill="none" height="3.2153" stroke="green" transform="rotate(7.5738)" width="3.2153" x="-40.1907" y="-1.6076" /><rect fill="none" height="6" stroke="green" width="40" x="-15.0" y="-3.0" /></g><g fill="none" id="13" stroke="green" transform="translate(700,300)"><polyline points="98.1483,7.9497 97.8195,7.9843 96.877,8.1164 95.3935,8.3546 93.4302,8.6862 91.0329,9.0738 88.2196,9.481 84.9875,9.8939 81.3552,10.3223 77.3591,10.7704 73.0367,11.2306 68.4259,11.6949 63.5688,12.1561 58.5072,12.5978 53.2849,12.999 47.926,13.3381 42.4544,13.6072 36.9114,13.7928 31.3244,13.8843 25.7227,13.8792 20.1391,13.7612 14.5984,13.5258 9.1346,13.1708 3.7703,12.6881 -1.4767,12.08 -6.5721,11.3442 -11.5009,10.481 -16.2413,9.5023 -20.7752,8.4086 -25.0895,7.2075 -29.1691,5.9255 -32.9881,4.5777 -36.5272,3.1819 -39.7633,1.7498 -42.6784,0.2976 -45.256,-1.1592 -47.4787,-2.6108 -49.3397,-4.038 -50.8201,-5.4202 -51.9068,-6.7497 -52.6008,-8.019 -52.9026,-9.2236 -52.8425,-10.3149 -52.3366,-11.1987 -51.3033,-11.9436 -49.8065,-12.6444 -47.8971,-13.2719 -45.6039,-13.8019 -42.9242,-14.1943 -39.8438,-14.4505 -36.3748,-14.5995 -32.551,-14.6391 -28.3977,-14.5769 -23.9457,-14.4105 -19.2239,-14.1417 -14.2643,-13.7728 -9.1023,-13.3018 -3.7715,-12.7296 1.6897,-12.0548 7.2448,-11.2677 12.8656,-10.3626 18.5262,-9.3271 24.1899,-8.1503 29.8823,-6.8139 35.6328,-5.3603 41.4058,-3.8504 47.1632,-2.3256 52.8635,-0.8228 58.4584,0.6247 63.8968,1.9847 69.1249,3.231 74.0886,4.3433 78.73,5.3043 82.9904,6.1068 86.8179,6.7478 90.157,7.2314 92.9645,7.5726 95.2001,7.7879 96.8244,7.9004 97.815,7.944 98.1483,7.9497 98.1483,7.9497" /><polyline points="-45.6396,-6.0853 -43.3576,-6.0853 -43.3576,-3.8033 -45.6396,-3.8033 -45.6396,-6.0853 -43.3576,-3.8033" stroke="red" stroke-width="0.2" transform="rotate(6.74365)" /><polyline points="-42.673,-6.0853 -40.391,-6.0853 -40.391,-3.8033 -42.673,-3.8033 -42.673,-6.0853 -40.391,-3.8033" stroke="red" stroke-width="0.2" transform="rotate(6.74365)" /><polyline points="-39.7065,-6.0853 -37.4245,-6.0853 -37.4245,-3.8033 -39.7065,-3.8033" stroke="red" stroke-width="0.2" transform="rotate(6.74365)" /><rect fill="none" height="3.0426" stroke="green" transform="rotate(6.74365)" width="3.0426" x="-38.033" y="-1.5213" /><rect fill="none" height="6" stroke="green" width="40" x="-15.0" y="-3.0" /></g><g fill="none" id="14" stroke="green" transform="translate(700,400)"><polyline points="93.1866,6.3443 92.8751,6.3812 91.9828,6.518 90.5787,6.762 88.7206,7.1004 86.4516,7.4971 83.7883,7.9177 80.7278,8.3486 77.2879,8.7992 73.5032,9.2729 69.4092,9.762 65.0417,10.2586 60.4405,10.7552 55.6452,11.2358 50.697,11.6799 45.6184,12.0668 40.432,12.3887 35.177,12.6323 29.879,12.7871 24.5661,12.8505 19.2687,12.8066 14.0107,12.6508 8.8243,12.3807 3.7305,11.9883 -1.2534,11.4754 -6.0952,10.8396 -10.7805,10.0809 -15.2885,9.2104 -19.602,8.2283 -23.7086,7.1417 -27.5935,5.9754 -31.2321,4.7436 -34.6058,3.4628 -37.6926,2.1441 -40.4752,0.8021 -42.9376,-0.5482 -45.0635,-1.8979 -46.846,-3.2288 -48.2668,-4.5218 -49.3137,-5.7695 -49.9874,-6.9649 -50.2883,-8.1037 -50.2446,-9.1395 -49.7756,-9.984 -48.8047,-10.703 -47.3935,-11.3859 -45.5901,-12.0044 -43.4216,-12.535 -40.8848,-12.9398 -37.9663,-13.2204 -34.6779,-13.4039 -31.0517,-13.488 -27.1117,-13.4797 -22.8871,-13.3761 -18.4054,-13.1786 -13.6969,-12.8891 -8.7952,-12.5053 -3.7322,-12.0276 1.4557,-11.4541 6.7341,-10.7752 12.0763,-9.9852 17.4577,-9.0721 22.8439,-8.0249 28.2591,-6.8267 33.731,-5.5181 39.2248,-4.1564 44.7041,-2.7803 50.1288,-1.4244 55.4531,-0.1197 60.6277,1.104 65.6016,2.2224 70.3229,3.2169 74.7369,4.0718 78.7874,4.781 82.4255,5.3424 85.5984,5.7604 88.2653,6.0498 90.3884,6.2268 91.9303,6.3136 92.8704,6.3429 93.1866,6.3443 93.1866,6.3443" /><polyline points="-43.2909,-5.7721 -41.1264,-5.7721 -41.1264,-3.6076 -43.2909,-3.6076 -43.2909,-5.7721 -41.1264,-3.6076" stroke="red" stroke-width="0.2" transform="rotate(6.00778)" /><polyline points="-40.477,-5.7721 -38.3124,-5.7721 -38.3124,-3.6076 -40.477,-3.6076 -40.477,-5.7721 -38.3124,-3.6076" stroke="red" stroke-width="0.2" transform="rotate(6.00778)" /><polyline points="-37.6631,-5.7721 -35.4985,-5.7721 -35.4985,-3.6076 -37.6631,-3.6076 -37.6631,-5.7721" stroke="red" stroke-width="0.2" transform="rotate(6.00778)" /><rect fill="none" height="2.8861" stroke="green" transform="rotate(6.00778)" width="2.8861" x="-36.0757" y="-1.443" /><rect fill="none" height="6" stroke="green" width="40" x="-15.0" y="-3.0" /></g><g fill="none" id="15" stroke="green" transform="translate(1000,0)"><polyline points="88.6507,5.0156 88.355,5.0541 87.5083,5.1938 86.1763,5.4411 84.4137,5.783 82.2611,6.1848 79.734,6.6136 76.8294,7.0566 73.5644,7.5224 69.9719,8.0139 66.0856,8.5235 61.9393,9.0431 57.5709,9.5653 53.0178,10.0743 48.3189,10.5505 43.4955,10.9736 38.5689,11.336 33.5763,11.6248 28.5418,11.8297 23.4921,11.9478 18.456,11.9638 13.4562,11.873 8.5231,11.6727 3.6767,11.3552 -1.0664,10.9219 -5.6759,10.3703 -10.1379,9.7002 -14.4327,8.9218 -18.5437,8.0352 -22.4592,7.047 -26.1648,5.9807 -29.637,4.8495 -32.858,3.6687 -35.8066,2.4487 -38.4663,1.2034 -40.8217,-0.0533 -42.8572,-1.3132 -44.5662,-2.559 -45.9309,-3.7725 -46.9396,-4.9472 -47.5931,-6.0762 -47.8915,-7.1554 -47.8613,-8.1405 -47.4246,-8.9483 -46.5095,-9.6425 -45.1755,-10.307 -43.468,-10.9145 -41.4124,-11.4425 -39.0053,-11.855 -36.2341,-12.1535 -33.1102,-12.3637 -29.6641,-12.4832 -25.9187,-12.5182 -21.9018,-12.4657 -17.6394,-12.3269 -13.1605,-12.103 -8.4968,-11.7915 -3.6788,-11.3926 1.259,-10.9039 6.284,-10.3161 11.3707,-9.6233 16.4962,-8.8139 21.6276,-7.8772 26.7883,-6.7972 32.004,-5.6129 37.2412,-4.3783 42.4646,-3.1299 47.6361,-1.9001 52.7115,-0.7178 57.6437,0.389 62.384,1.3979 66.8828,2.2919 71.088,3.0564 74.9461,3.6865 78.4105,4.1804 81.4311,4.5433 83.9694,4.7893 85.9895,4.9344 87.4562,5.0002 88.3501,5.0178 88.6507,5.0156 88.6507,5.0156" /><polyline points="-41.1543,-5.4872 -39.0966,-5.4872 -39.0966,-3.4295 -41.1543,-3.4295 -41.1543,-5.4872 -39.0966,-3.4295" stroke="red" stroke-width="0.2" transform="rotate(5.35119)" /><polyline points="-38.4793,-5.4872 -36.4216,-5.4872 -36.4216,-3.4295 -38.4793,-3.4295 -38.4793,-5.4872 -36.4216,-3.4295" stroke="red" stroke-width="0.2" transform="rotate(5.35119)" /><polyline points="-35.8042,-5.4872 -33.7465,-5.4872 -33.7465,-3.4295 -35.8042,-3.4295 -35.8042,-5.4872 -33.7465,-3.4295" stroke="red" stroke-width="0.2" transform="rotate(5.35119)" /><rect fill="none" height="2.7436" stroke="green" transform="rotate(5.35119)" width="2.7436" x="-34.2952" y="-1.3718" /><rect fill="none" height="6" stroke="green" width="40" x="-15.0" y="-3.0" /></g><g fill="none" id="16" stroke="green" transform="translate(1000,100)"><polyline points="84.4968,3.9092 84.2155,3.9487 83.4104,4.0902 82.1438,4.3387 80.4682,4.6817 78.4216,5.0856 76.0185,5.5188 73.256,5.9693 70.1504,6.445 66.733,6.9484 63.0359,7.4718 59.0913,8.0074 54.9351,8.5477 50.6029,9.0772 46.1314,9.5768 41.5409,10.0271 36.8514,10.4207 32.0983,10.7447 27.3045,10.9892 22.4954,11.1512 17.6982,11.2158 12.9346,11.1783 8.2334,11.0358 3.6137,10.7808 -0.9089,10.4146 -5.3052,9.9342 -9.5622,9.3397 -13.661,8.6402 -17.5858,7.8359 -21.3253,6.933 -24.8657,5.9535 -28.1844,4.9099 -31.2642,3.8167 -34.085,2.6835 -36.6307,1.5233 -38.8868,0.3492 -40.8382,-0.831 -42.4783,-2.001 -43.7902,-3.1436 -44.7626,-4.2527 -45.3961,-5.3218 -45.691,-6.347 -45.6719,-7.2856 -45.2638,-8.0594 -44.3989,-8.7296 -43.1347,-9.3757 -41.5141,-9.9711 -39.5611,-10.4943 -37.2722,-10.9108 -34.6353,-11.2222 -31.6616,-11.4532 -28.38,-11.6007 -24.8125,-11.6707 -20.9855,-11.6601 -16.9239,-11.5696 -12.6551,-11.4002 -8.2095,-11.1492 -3.616,-10.8164 1.0925,-10.3993 5.885,-9.8886 10.7373,-9.2785 15.6277,-8.5577 20.525,-7.7157 25.4516,-6.7374 30.4317,-5.6604 35.4326,-4.5356 40.4207,-3.3975 45.359,-2.2767 50.2053,-1.2003 54.9146,-0.1943 59.44,0.7204 63.7343,1.5279 67.7475,2.215 71.4289,2.7774 74.7339,3.214 77.6149,3.53 80.0353,3.7395 81.961,3.858 83.3588,3.9062 84.2105,3.9142 84.4968,3.9092 84.4968,3.9092" /><polyline points="-39.2052,-5.2274 -37.2449,-5.2274 -37.2449,-3.2671 -39.2052,-3.2671 -39.2052,-5.2274 -37.2449,-3.2671" stroke="red" stroke-width="0.2" transform="rotate(4.76189)" /><polyline points="-36.6569,-5.2274 -34.6966,-5.2274 -34.6966,-3.2671 -36.6569,-3.2671 -36.6569,-5.2274 -34.6966,-3.2671" stroke="red" stroke-width="0.2" transform="rotate(4.76189)" /><polyline points="-34.1085,-5.2274 -32.1483,-5.2274 -32.1483,-3.2671 -34.1085,-3.2671 -34.1085,-5.2274 -32.1483,-3.2671" stroke="red" stroke-width="0.2" transform="rotate(4.76189)" /><polyline points="-31.5602,-5.2274 -29.5999,-5.2274" stroke="red" stroke-width="0.2" transform="rotate(4.76189)" /><rect fill="none" height="2.6137" stroke="green" transform="rotate(4.76189)" width="2.6137" x="-32.671" y="-1.3068" /><rect fill="none" height="6" stroke="green" width="40" x="-15.0" y="-3.0" /></g><g fill="none" id="17" stroke="green" transform="translate(1000,200)"><polyline points="80.6847,2.9827 80.4166,3.0229 79.6493,3.1651 78.4427,3.4135 76.8464,3.7558 74.8965,4.1594 72.6067,4.5942 69.9739,5.0486 67.0139,5.5301 63.7565,6.0409 60.2324,6.5733 56.4721,7.1194 52.5099,7.6719 48.3796,8.2157 44.1162,8.7322 39.7386,9.2026 35.2661,9.6198 30.7322,9.9712 26.1588,10.2471 21.57,10.4442 16.9919,10.5484 12.4447,10.5548 7.9563,10.4605 3.5447,10.258 -0.7752,9.9485 -4.9757,9.529 -9.0441,8.9992 -12.9625,8.3679 -16.7158,7.635 -20.2931,6.8063 -23.681,5.9028 -26.8578,4.9361 -29.8071,3.9199 -32.5095,2.8632 -34.9496,1.7784 -37.1134,0.6778 -38.9864,-0.4314 -40.5622,-1.5336 -41.8245,-2.6126 -42.7625,-3.6626 -43.3766,-4.6774 -43.6672,-5.6532 -43.6572,-6.5493 -43.2746,-7.2915 -42.455,-7.9389 -41.254,-8.5668 -39.7125,-9.1494 -37.8531,-9.6661 -35.672,-10.0839 -33.158,-10.4045 -30.3216,-10.6513 -27.1908,-10.8212 -23.7863,-10.9196 -20.1335,-10.9434 -16.2559,-10.893 -12.18,-10.7691 -7.9345,-10.5689 -3.5472,-10.292 0.9506,-9.9355 5.5295,-9.4905 10.1663,-8.9512 14.8404,-8.3065 19.5223,-7.5462 24.2333,-6.6562 28.9961,-5.6722 33.7794,-4.643 38.5504,-3.6009 43.2739,-2.5749 47.9091,-1.5904 52.4129,-0.6719 56.7403,0.161 60.8463,0.8937 64.683,1.514 68.2017,2.0182 71.3601,2.4056 74.1127,2.6818 76.4248,2.8603 78.2639,2.9563 79.5985,2.9899 80.4115,2.99 80.6847,2.9827 80.6847,2.9827" /><polyline points="-37.422,-4.9896 -35.5509,-4.9896 -35.5509,-3.1185 -37.422,-3.1185 -37.422,-4.9896 -35.5509,-3.1185" stroke="red" stroke-width="0.2" transform="rotate(4.23013)" /><polyline points="-34.9896,-4.9896 -33.1185,-4.9896 -33.1185,-3.1185 -34.9896,-3.1185 -34.9896,-4.9896 -33.1185,-3.1185" stroke="red" stroke-width="0.2" transform="rotate(4.23013)" /><polyline points="-32.5571,-4.9896 -30.686,-4.9896 -30.686,-3.1185 -32.5571,-3.1185 -32.5571,-4.9896 -30.686,-3.1185" stroke="red" stroke-width="0.2" transform="rotate(4.23013)" /><polyline points="-30.1247,-4.9896 -28.2536,-4.9896 -28.2536,-3.1185" stroke="red" stroke-width="0.2" transform="rotate(4.23013)" /><rect fill="none" height="2.4948" stroke="green" transform="rotate(4.23013)" width="2.4948" x="-31.185" y="-1.2474" /><rect fill="none" height="6" stroke="green" width="40" x="-15.0" y="-3.0" /></g><g fill="none" id="18" stroke="green" transform="translate(1000,300)"><polyline points="77.1776,2.2029 76.9215,2.2435 76.189,2.3856 75.0371,2.6329 73.5134,2.973 71.6522,3.3747 69.466,3.8088 66.9521,4.2646 64.1255,4.7488 61.0148,5.2635 57.6492,5.8009 54.0579,6.3534 50.2736,6.9136 46.3284,7.4668 42.2557,7.995 38.0735,8.4801 33.8001,8.915 29.4674,9.2875 25.0965,9.5881 20.7101,9.8136 16.3331,9.95 11.985,9.9927 7.6923,9.9387 3.4721,9.7805 -0.6612,9.5193 -4.6812,9.152 -8.5759,8.6781 -12.3279,8.106 -15.9228,7.4354 -19.3502,6.6717 -22.5971,5.835 -25.6427,4.9362 -28.4711,3.9882 -31.0637,2.9995 -33.4058,1.9818 -35.4837,0.9468 -37.2836,-0.0988 -38.7993,-1.14 -40.0151,-2.1617 -40.9205,-3.1582 -41.5159,-4.1236 -41.8016,-5.0544 -41.7993,-5.9114 -41.4394,-6.6242 -40.6608,-7.2498 -39.5175,-7.8599 -38.0481,-8.4294 -36.2742,-8.9384 -34.192,-9.3555 -31.7905,-9.6823 -29.0803,-9.9411 -26.0879,-10.1288 -22.8332,-10.2503 -19.3404,-10.3024 -15.6322,-10.2854 -11.7336,-10.1998 -7.6723,-10.0425 -3.4748,-9.813 0.8291,-9.5083 5.2111,-9.1197 9.6494,-8.6413 14.1241,-8.0624 18.6072,-7.3731 23.1191,-6.5599 27.6815,-5.6573 32.2637,-4.7117 36.8343,-3.7536 41.3593,-2.8104 45.7996,-1.9063 50.1136,-1.0643 54.2584,-0.3026 58.1906,0.365 61.8643,0.9272 65.2331,1.381 68.2564,1.7261 70.8908,1.968 73.1031,2.1201 74.8625,2.1971 76.1389,2.2185 76.9164,2.2121 77.1776,2.2029 77.1776,2.2029" /><polyline points="-35.7855,-4.7714 -33.9962,-4.7714 -33.9962,-2.9821 -35.7855,-2.9821 -35.7855,-4.7714 -33.9962,-2.9821" stroke="red" stroke-width="0.2" transform="rotate(3.74797)" /><polyline points="-33.4594,-4.7714 -31.6702,-4.7714 -31.6702,-2.9821 -33.4594,-2.9821 -33.4594,-4.7714 -31.6702,-2.9821" stroke="red" stroke-width="0.2" transform="rotate(3.74797)" /><polyline points="-31.1334,-4.7714 -29.3441,-4.7714 -29.3441,-2.9821 -31.1334,-2.9821 -31.1334,-4.7714 -29.3441,-2.9821" stroke="red" stroke-width="0.2" transform="rotate(3.74797)" /><polyline points="-28.8073,-4.7714 -27.0181,-4.7714 -27.0181,-2.9821 -28.8073,-2.9821" stroke="red" stroke-width="0.2" transform="rotate(3.74797)" /><rect fill="none" height="2.3857" stroke="green" transform="rotate(3.74797)" width="2.3857" x="-29.8212" y="-1.1928" /><rect fill="none" height="6" stroke="green" width="40" x="-15.0" y="-3.0" /></g><g fill="none" id="19" stroke="green" transform="translate(1000,400)"><polyline points="73.9436,1.5435 73.6986,1.5843 72.998,1.7257 71.8965,1.9711 70.4394,2.3081 68.6595,2.7065 66.5686,3.1384 64.1639,3.5934 61.4599,4.078 58.484,4.5939 55.2641,5.1334 51.828,5.689 48.2072,6.2534 44.4322,6.8123 40.5349,7.3481 36.5324,7.8435 32.4421,8.2914 28.2947,8.68 24.11,9.0001 19.91,9.2483 15.7184,9.4111 11.5537,9.4839 7.4413,9.4636 3.3977,9.3432 -0.5635,9.1233 -4.4169,8.801 -8.1511,8.3756 -11.7492,7.8551 -15.1976,7.2391 -18.4863,6.5328 -21.6026,5.7552 -24.5266,4.9166 -27.2428,4.0293 -29.7335,3.1013 -31.9844,2.1436 -33.9825,1.1674 -35.7143,0.1791 -37.1738,-0.8072 -38.3458,-1.7768 -39.2204,-2.7247 -39.7979,-3.6452 -40.0784,-4.5347 -40.0824,-5.3556 -39.7429,-6.041 -39.0017,-6.6459 -37.911,-7.2387 -36.5077,-7.7951 -34.8123,-8.2957 -32.8208,-8.7105 -30.5229,-9.0412 -27.9287,-9.309 -25.0636,-9.5107 -21.9469,-9.651 -18.6016,-9.7266 -15.0494,-9.7375 -11.3143,-9.6841 -7.423,-9.5633 -3.4005,-9.3742 0.7244,-9.114 4.9247,-8.7739 9.1796,-8.3482 13.4701,-7.8266 17.7694,-7.1992 22.0974,-6.4534 26.4742,-5.6223 30.8704,-4.7501 35.2556,-3.8659 39.5969,-2.9957 43.8569,-2.1623 47.9954,-1.3874 51.9713,-0.6882 55.7427,-0.0776 59.2659,0.434 62.4962,0.8439 65.3947,1.1523 67.9199,1.3646 70.0401,1.4941 71.726,1.5549 72.9489,1.5661 73.6935,1.5542 73.9436,1.5435 73.9436,1.5435" /><polyline points="-34.2795,-4.5706 -32.5655,-4.5706 -32.5655,-2.8566 -34.2795,-2.8566 -34.2795,-4.5706 -32.5655,-2.8566" stroke="red" stroke-width="0.2" transform="rotate(3.30882)" /><polyline points="-32.0513,-4.5706 -30.3374,-4.5706 -30.3374,-2.8566 -32.0513,-2.8566 -32.0513,-4.5706 -30.3374,-2.8566" stroke="red" stroke-width="0.2" transform="rotate(3.30882)" /><polyline points="-29.8232,-4.5706 -28.1092,-4.5706 -28.1092,-2.8566 -29.8232,-2.8566 -29.8232,-4.5706 -28.1092,-2.8566" stroke="red" stroke-width="0.2" transform="rotate(3.30882)" /><polyline points="-27.595,-4.5706 -25.881,-4.5706 -25.881,-2.8566 -27.595,-2.8566 -27.595,-4.5706" stroke="red" stroke-width="0.2" transform="rotate(3.30882)" /><rect fill="none" height="2.2853" stroke="green" transform="rotate(3.30882)" width="2.2853" x="-28.5663" y="-1.1426" /><rect fill="none" height="6" stroke="green" width="40" x="-15.0" y="-3.0" /></g><g fill="none" id="20" stroke="green" transform="translate(1300,0)"><polyline points="70.9548,0.9836 70.72,1.0244 70.0487,1.1648 68.9936,1.4077 67.5979,1.7407 65.8928,2.135 63.8896,2.5634 61.5855,3.0162 58.9945,3.4993 56.1427,4.0142 53.057,4.5535 49.7641,5.1097 46.2939,5.6755 42.6758,6.2371 38.9402,6.7774 35.1033,7.2796 31.182,7.737 27.2054,8.1377 23.1926,8.4729 19.1646,8.7392 15.1441,8.9237 11.1488,9.0216 7.2031,9.0297 3.3227,8.9414 -0.4793,8.7571 -4.1786,8.4737 -7.7641,8.0907 -11.2198,7.6155 -14.5325,7.0477 -17.6926,6.3922 -20.6877,5.667 -23.4987,4.8821 -26.1107,4.0491 -28.5066,3.1755 -30.6727,2.2718 -32.5963,1.3486 -34.2645,0.412 -35.6714,-0.5244 -36.8024,-1.4469 -37.6479,-2.3505 -38.2081,-3.2297 -38.4832,-4.0812 -38.4926,-4.8688 -38.1715,-5.5287 -37.4645,-6.1141 -36.422,-6.6902 -35.0793,-7.2334 -33.456,-7.7251 -31.5481,-8.1365 -29.3456,-8.4692 -26.8585,-8.7436 -24.111,-8.9564 -21.1216,-9.112 -17.9125,-9.207 -14.5044,-9.2414 -10.9205,-9.2152 -7.1862,-9.1255 -3.3256,-8.9711 0.6337,-8.7492 4.6659,-8.4511 8.7511,-8.0713 12.8711,-7.5997 17.0003,-7.0267 21.1577,-6.3402 25.3626,-5.5723 29.5863,-4.765 33.7996,-3.9462 37.9707,-3.1405 42.0634,-2.3695 46.0393,-1.6539 49.8586,-1.0098 53.4812,-0.4493 56.8649,0.0178 59.9669,0.3894 62.7499,0.6657 65.1742,0.8525 67.2093,0.9625 68.8272,1.0095 70.0005,1.012 70.7149,0.9956 70.9548,0.9836 70.9548,0.9836" /><polyline points="-32.8899,-4.3853 -31.2454,-4.3853 -31.2454,-2.7408 -32.8899,-2.7408 -32.8899,-4.3853 -31.2454,-2.7408" stroke="red" stroke-width="0.2" transform="rotate(2.90723)" /><polyline points="-30.7521,-4.3853 -29.1076,-4.3853 -29.1076,-2.7408 -30.7521,-2.7408 -30.7521,-4.3853 -29.1076,-2.7408" stroke="red" stroke-width="0.2" transform="rotate(2.90723)" /><polyline points="-28.6142,-4.3853 -26.9697,-4.3853 -26.9697,-2.7408 -28.6142,-2.7408 -28.6142,-4.3853 -26.9697,-2.7408" stroke="red" stroke-width="0.2" transform="rotate(2.90723)" /><polyline points="-26.4764,-4.3853 -24.8319,-4.3853 -24.8319,-2.7408 -26.4764,-2.7408 -26.4764,-4.3853 -24.8319,-2.7408" stroke="red" stroke-width="0.2" transform="rotate(2.90723)" /><rect fill="none" height="2.1927" stroke="green" transform="rotate(2.90723)" width="2.1927" x="-27.4082" y="-1.0963" /><rect fill="none" height="6" stroke="green" width="40" x="-15.0" y="-3.0" /></g><g fill="none" id="21" stroke="green" transform="translate(1300,100)"><polyline points="68.1862,0.5065 67.9608,0.5471 67.3167,0.6862 66.3043,0.9261 64.9652,1.2548 63.3293,1.6441 61.4071,2.0682 59.1959,2.5175 56.7091,2.9978 53.9721,3.5102 51.0104,4.0474 47.8497,4.6022 44.5187,5.1674 41.0455,5.7294 37.4593,6.2717 33.7756,6.778 30.0105,7.2416 26.1918,7.6513 22.338,7.9982 18.4692,8.279 14.6071,8.4811 10.7686,8.5998 6.9773,8.6321 3.248,8.5712 -0.4064,8.4176 -3.9628,8.1682 -7.4105,7.8223 -10.734,7.3871 -13.9207,6.862 -16.9612,6.2516 -19.8437,5.5733 -22.5496,4.8365 -25.0646,4.0522 -27.3723,3.2275 -29.4592,2.3726 -31.3132,1.4974 -32.922,0.6077 -34.2797,-0.2834 -35.3722,-1.1628 -36.1902,-2.0258 -36.734,-2.8672 -37.0036,-3.6837 -37.0175,-4.4404 -36.713,-5.0765 -36.0372,-5.6434 -35.0391,-6.2034 -33.7523,-6.7337 -32.1955,-7.2162 -30.3647,-7.6233 -28.2504,-7.9566 -25.8622,-8.2356 -23.2235,-8.4571 -20.352,-8.6251 -17.2689,-8.7362 -13.9944,-8.7903 -10.5505,-8.7874 -6.9616,-8.7242 -3.251,-8.5998 0.5548,-8.411 4.4312,-8.1495 8.359,-7.8098 12.3208,-7.3821 16.292,-6.857 20.2911,-6.2231 24.3363,-5.5112 28.3999,-4.7616 32.4534,-4.0009 36.4664,-3.2524 40.4039,-2.5369 44.2288,-1.8738 47.9027,-1.2786 51.3871,-0.7624 54.6413,-0.3344 57.6243,0.0034 60.3002,0.2518 62.6308,0.4163 64.587,0.5093 66.1419,0.5445 67.2694,0.5397 67.9557,0.5195 68.1862,0.5065 68.1862,0.5065" /><polyline points="-31.6044,-4.2139 -30.0242,-4.2139 -30.0242,-2.6337 -31.6044,-2.6337 -31.6044,-4.2139 -30.0242,-2.6337" stroke="red" stroke-width="0.2" transform="rotate(2.53861)" /><polyline points="-29.5501,-4.2139 -27.9699,-4.2139 -27.9699,-2.6337 -29.5501,-2.6337 -29.5501,-4.2139 -27.9699,-2.6337" stroke="red" stroke-width="0.2" transform="rotate(2.53861)" /><polyline points="-27.4958,-4.2139 -25.9156,-4.2139 -25.9156,-2.6337 -27.4958,-2.6337 -27.4958,-4.2139 -25.9156,-2.6337" stroke="red" stroke-width="0.2" transform="rotate(2.53861)" /><polyline points="-25.4415,-4.2139 -23.8613,-4.2139 -23.8613,-2.6337 -25.4415,-2.6337 -25.4415,-4.2139 -23.8613,-2.6337" stroke="red" stroke-width="0.2" transform="rotate(2.53861)" /><polyline points="-23.3873,-4.2139 -21.807,-4.2139" stroke="red" stroke-width="0.2" transform="rotate(2.53861)" /><rect fill="none" height="2.107" stroke="green" transform="rotate(2.53861)" width="2.107" x="-26.337" y="-1.0535" /><rect fill="none" height="6" stroke="green" width="40" x="-15.0" y="-3.0" /></g><g fill="none" id="22" stroke="green" transform="translate(1300,200)"><polyline points="65.6158,0.0986 65.3992,0.139 64.7801,0.2765 63.8073,0.513 62.5206,0.837 60.9486,1.221 59.1014,1.64 56.9762,2.0849 54.5861,2.5613 51.9552,3.0699 49.1084,3.6038 46.0701,4.1557 42.8681,4.7185 39.5292,5.2791 36.0814,5.8214 32.5396,6.3296 28.9192,6.7972 25.247,7.2132 21.5406,7.5689 17.8194,7.8613 14.1042,8.0777 10.4113,8.2139 6.7632,8.2665 3.1743,8.2292 -0.3431,8.1022 -3.7667,7.8825 -7.0862,7.5694 -10.2868,7.1695 -13.3562,6.6824 -16.2854,6.1124 -19.063,5.4761 -21.671,4.7825 -24.0956,4.0422 -26.3208,3.2618 -28.3339,2.451 -30.123,1.6194 -31.6761,0.7725 -32.9876,-0.0772 -34.0439,-0.9172 -34.836,-1.743 -35.364,-2.5495 -35.6281,-3.3337 -35.6458,-4.0618 -35.3564,-4.6756 -34.7094,-5.2249 -33.7521,-5.7695 -32.5169,-6.2871 -31.0216,-6.7603 -29.2623,-7.1624 -27.2296,-7.4952 -24.9332,-7.7773 -22.3953,-8.0055 -19.6331,-8.1835 -16.667,-8.308 -13.5164,-8.3788 -10.2024,-8.3956 -6.7486,-8.3553 -3.1773,-8.2567 0.4859,-8.0967 4.2175,-7.8672 7.999,-7.5627 11.8137,-7.1738 15.6381,-6.6911 19.4899,-6.1039 23.3865,-5.442 27.3009,-4.7439 31.2059,-4.0349 35.0717,-3.3376 38.8646,-2.6716 42.5489,-2.0553 46.0876,-1.5035 49.4434,-1.0266 52.5773,-0.6334 55.4496,-0.3253 58.026,-0.1016 60.2695,0.0434 62.1524,0.1218 63.6489,0.1468 64.7338,0.1357 65.3941,0.1124 65.6158,0.0986 65.6158,0.0986" /><polyline points="-30.4122,-4.055 -28.8916,-4.055 -28.8916,-2.5344 -30.4122,-2.5344 -30.4122,-4.055 -28.8916,-2.5344" stroke="red" stroke-width="0.2" transform="rotate(2.19909)" /><polyline points="-28.4354,-4.055 -26.9148,-4.055 -26.9148,-2.5344 -28.4354,-2.5344 -28.4354,-4.055 -26.9148,-2.5344" stroke="red" stroke-width="0.2" transform="rotate(2.19909)" /><polyline points="-26.4586,-4.055 -24.938,-4.055 -24.938,-2.5344 -26.4586,-2.5344 -26.4586,-4.055 -24.938,-2.5344" stroke="red" stroke-width="0.2" transform="rotate(2.19909)" /><polyline points="-24.4818,-4.055 -22.9612,-4.055 -22.9612,-2.5344 -24.4818,-2.5344 -24.4818,-4.055 -22.9612,-2.5344" stroke="red" stroke-width="0.2" transform="rotate(2.19909)" /><polyline points="-22.505,-4.055 -20.9844,-4.055 -20.9844,-2.5344" stroke="red" stroke-width="0.2" transform="rotate(2.19909)" /><rect fill="none" height="2.0275" stroke="green" transform="rotate(2.19909)" width="2.0275" x="-25.3435" y="-1.0137" /><rect fill="none" height="6" stroke="green" width="40" x="-15.0" y="-3.0" /></g><g fill="none" id="23" stroke="green" transform="translate(1300,300)"><polyline points="63.224,-0.2512 63.0155,-0.2111 62.4197,-0.0754 61.4836,0.1577 60.2456,0.4766 58.7329,0.8549 56.9552,1.2684 54.9099,1.7083 52.6094,2.1799 50.0772,2.6839 47.3369,3.2133 44.4123,3.7611 41.33,4.3203 38.1158,4.8781 34.7966,5.4188 31.3866,5.9271 27.9007,6.3968 24.3646,6.817 20.7952,7.1793 17.2112,7.4806 13.6325,7.7088 10.075,7.8595 6.5602,7.9295 3.102,7.9124 -0.2878,7.8086 -3.5877,7.615 -6.7879,7.3308 -9.8739,6.9624 -12.834,6.5092 -15.6594,5.9754 -18.3391,5.377 -20.8556,4.7225 -23.1958,4.0219 -25.344,3.2817 -27.2879,2.5111 -29.0161,1.7193 -30.5171,0.9115 -31.7853,0.0996 -32.8075,-0.7042 -33.5751,-1.4957 -34.0881,-2.27 -34.3467,-3.0242 -34.3676,-3.7256 -34.092,-4.3186 -33.4715,-4.8513 -32.552,-5.381 -31.3645,-5.8863 -29.9262,-6.3501 -28.2332,-6.7469 -26.2764,-7.0783 -24.0651,-7.3622 -21.621,-7.5955 -18.9605,-7.7816 -16.1032,-7.9172 -13.0678,-8.002 -9.8747,-8.0356 -6.5466,-8.015 -3.1051,-7.9389 0.4255,-7.8041 4.0222,-7.6026 7.6675,-7.3292 11.3452,-6.9745 15.0326,-6.5297 18.7471,-5.9842 22.5051,-5.367 26.2805,-4.7149 30.0468,-4.0524 33.7754,-3.401 37.4335,-2.7792 40.9867,-2.2048 44.3993,-1.6918 47.6353,-1.2501 50.657,-0.8877 53.4263,-0.606 55.9098,-0.404 58.0723,-0.2761 59.887,-0.2105 61.329,-0.1943 62.3743,-0.2107 63.0104,-0.2367 63.224,-0.2512 63.224,-0.2512" /><polyline points="-29.3038,-3.9072 -27.8386,-3.9072 -27.8386,-2.442 -29.3038,-2.442 -29.3038,-3.9072 -27.8386,-2.442" stroke="red" stroke-width="0.2" transform="rotate(1.88537)" /><polyline points="-27.3991,-3.9072 -25.9339,-3.9072 -25.9339,-2.442 -27.3991,-2.442 -27.3991,-3.9072 -25.9339,-2.442" stroke="red" stroke-width="0.2" transform="rotate(1.88537)" /><polyline points="-25.4943,-3.9072 -24.0291,-3.9072 -24.0291,-2.442 -25.4943,-2.442 -25.4943,-3.9072 -24.0291,-2.442" stroke="red" stroke-width="0.2" transform="rotate(1.88537)" /><polyline points="-23.5896,-3.9072 -22.1244,-3.9072 -22.1244,-2.442 -23.5896,-2.442 -23.5896,-3.9072 -22.1244,-2.442" stroke="red" stroke-width="0.2" transform="rotate(1.88537)" /><polyline points="-21.6848,-3.9072 -20.2196,-3.9072 -20.2196,-2.442 -21.6848,-2.442" stroke="red" stroke-width="0.2" transform="rotate(1.88537)" /><rect fill="none" height="1.9536" stroke="green" transform="rotate(1.88537)" width="1.9536" x="-24.4199" y="-0.9768" /><rect fill="none" height="6" stroke="green" width="40" x="-15.0" y="-3.0" /></g><g fill="none" id="24" stroke="green" transform="translate(1300,400)"><polyline points="60.9936,-0.5518 60.7926,-0.5122 60.2185,-0.3783 59.3165,-0.1488 58.1237,0.1649 56.6663,0.5372 54.9533,0.9449 52.9822,1.3793 50.7651,1.8455 48.3247,2.3441 45.6836,2.8683 42.8648,3.4111 39.8939,3.9657 36.7958,4.5195 33.5963,5.0574 30.309,5.5645 26.9482,6.0347 23.5389,6.4573 20.0971,6.8244 16.641,7.1326 13.1896,7.3703 9.7583,7.533 6.3677,7.6178 3.0314,7.6182 -0.2395,7.5347 -3.424,7.364 -6.5127,7.1055 -9.4917,6.7652 -12.3496,6.3425 -15.078,5.8414 -17.6662,5.2772 -20.0972,4.6581 -22.3582,3.9937 -24.4343,3.2901 -26.3135,2.5562 -27.9847,1.8007 -29.4367,1.0287 -30.6642,0.2517 -31.6543,-0.5187 -32.3986,-1.2786 -32.8973,-2.0231 -33.1505,-2.7494 -33.1741,-3.426 -32.9111,-3.9994 -32.3151,-4.5164 -31.4306,-5.032 -30.2874,-5.5252 -28.9022,-5.9797 -27.2707,-6.3708 -25.3846,-6.7001 -23.2527,-6.9848 -20.8959,-7.2218 -18.33,-7.4144 -15.5742,-7.5592 -12.6462,-7.6559 -9.5659,-7.704 -6.3551,-7.7004 -3.0344,-7.6438 0.3723,-7.531 3.8432,-7.3543 7.3612,-7.1083 10.911,-6.7842 14.4706,-6.373 18.0568,-5.865 21.6853,-5.2879 25.3308,-4.6773 28.9676,-4.0567 32.5678,-3.4464 36.1001,-2.8645 39.5308,-2.3277 42.8256,-1.8495 45.9497,-1.4392 48.8666,-1.1044 51.5396,-0.8461 53.9366,-0.6634 56.0235,-0.5507 57.7745,-0.4963 59.1657,-0.4877 60.1741,-0.5087 60.7876,-0.5368 60.9936,-0.5518 60.9936,-0.5518" /><polyline points="-28.271,-3.7695 -26.8574,-3.7695 -26.8574,-2.3559 -28.271,-2.3559 -28.271,-3.7695 -26.8574,-2.3559" stroke="red" stroke-width="0.2" transform="rotate(1.59464)" /><polyline points="-26.4334,-3.7695 -25.0198,-3.7695 -25.0198,-2.3559 -26.4334,-2.3559 -26.4334,-3.7695 -25.0198,-2.3559" stroke="red" stroke-width="0.2" transform="rotate(1.59464)" /><polyline points="-24.5958,-3.7695 -23.1822,-3.7695 -23.1822,-2.3559 -24.5958,-2.3559 -24.5958,-3.7695 -23.1822,-2.3559" stroke="red" stroke-width="0.2" transform="rotate(1.59464)" /><polyline points="-22.7581,-3.7695 -21.3446,-3.7695 -21.3446,-2.3559 -22.7581,-2.3559 -22.7581,-3.7695 -21.3446,-2.3559" stroke="red" stroke-width="0.2" transform="rotate(1.59464)" /><polyline points="-20.9205,-3.7695 -19.507,-3.7695 -19.507,-2.3559 -20.9205,-2.3559 -20.9205,-3.7695" stroke="red" stroke-width="0.2" transform="rotate(1.59464)" /><rect fill="none" height="1.8847" stroke="green" transform="rotate(1.59464)" width="1.8847" x="-23.5592" y="-0.9424" /><rect fill="none" height="6" stroke="green" width="40" x="-15.0" y="-3.0" /></g></g></svg>